<?xml version="1.0" encoding="utf-8"?>
<!-- Generator: Adobe Illustrator 13.0.2, SVG Export Plug-In . SVG Version: 6.00 Build 14948)  -->
<!DOCTYPE svg PUBLIC "-//W3C//DTD SVG 1.0//EN" "http://www.w3.org/TR/2001/REC-SVG-20010904/DTD/svg10.dtd">
<svg version="1.0" id="Layer_1" xmlns="http://www.w3.org/2000/svg" xmlns:xlink="http://www.w3.org/1999/xlink" x="0px" y="0px"
	 width="1200" height="900" viewBox="0 0 1200 900" style="enable-background:new 0 0 1200 900;"
	 xml:space="preserve">
<style type="text/css">
	<![CDATA[
	.st0 {
		display: none;
		fill: #FFFFFF;
		stroke: #EBBD1E;
	}
	.st1 {
		fill: #198E81;
	}
	.st2 {
		fill: #EBBD1E;
	}
	.st3 {
		display: none;
		fill: #FFFFFF;
		stroke: #0058A5;
	}
	.st4 {
		display: none;
		fill: #FFFFFF;
		stroke: #0492CE;
	}
	.st5 {
		display: inline;
	}
	.st6 {
		display: inline;
		fill: none;
	}
	.st7 {
		display: none;
		fill: #FFFFFF;
		stroke: #A5D0EA;
	}
	.st8 {
		fill: #0058A5;
	}
	.st9 {
		fill: #0492CE;
	}
	.st10 {
		fill: none;
		stroke: #F5F5F5;
		stroke-width: 0.2833;
	}
	.st11 {
		display: none;
	}
	.st12 {
		fill: #A5D0EA;
	}
	.st13 {
		display: none;
		fill: #FFFFFF;
		stroke: #198E81;
	}
	.st14 {
		fill: none;
		stroke: #F5F5F5;
	}
	.canvas{
		fill:white;
		stroke: #cccccc;
		stroke-width:2px;
	}
	]]>
</style>
<g id="New_Layer">
	<g class="st11">
		<g class="st5">
			<line class="st14" x1="1158.645" y1="-28.056" x2="1158.645" y2="414.427"/>
			<line class="st14" x1="1048.955" y1="-28.056" x2="1048.955" y2="414.427"/>
			<line class="st14" x1="939.266" y1="-28.056" x2="939.266" y2="414.427"/>
			<line class="st14" x1="829.578" y1="-28.056" x2="829.578" y2="414.427"/>
			<line class="st14" x1="719.888" y1="-28.056" x2="719.888" y2="414.427"/>
			<line class="st14" x1="610.199" y1="-28.056" x2="610.199" y2="414.427"/>
			<line class="st14" x1="500.509" y1="-28.056" x2="500.509" y2="414.427"/>
			<line class="st14" x1="390.823" y1="-28.056" x2="390.823" y2="414.427"/>
			<line class="st14" x1="281.136" y1="-28.056" x2="281.136" y2="414.427"/>
			<line class="st14" x1="171.448" y1="-28.056" x2="171.448" y2="414.427"/>
			<line class="st14" x1="61.758" y1="-28.056" x2="61.758" y2="414.427"/>
			<line class="st14" x1="-47.932" y1="-28.056" x2="-47.932" y2="414.427"/>
		</g>
		<g class="st5">
			<line class="st10" x1="1158.645" y1="537.43" x2="1158.645" y2="961.599"/>
			<line class="st10" x1="1048.955" y1="537.43" x2="1048.955" y2="961.599"/>
			<line class="st10" x1="939.266" y1="537.43" x2="939.266" y2="961.599"/>
			<line class="st10" x1="829.578" y1="537.43" x2="829.578" y2="961.599"/>
			<line class="st10" x1="719.888" y1="537.43" x2="719.888" y2="961.599"/>
			<line class="st10" x1="610.199" y1="537.43" x2="610.199" y2="961.599"/>
			<line class="st10" x1="500.509" y1="537.43" x2="500.509" y2="961.599"/>
			<line class="st10" x1="390.823" y1="537.43" x2="390.823" y2="961.599"/>
			<line class="st10" x1="281.136" y1="537.43" x2="281.136" y2="961.599"/>
			<line class="st10" x1="171.448" y1="537.43" x2="171.448" y2="961.599"/>
			<line class="st10" x1="61.758" y1="537.43" x2="61.758" y2="961.599"/>
			<line class="st10" x1="-47.932" y1="537.43" x2="-47.932" y2="961.599"/>
		</g>
	</g>
	<g>
		
	</g>
	<g>
			<rect x="20" y="20" class="canvas" width="1180" height="600" />
			<g>
			<polygon class="st8" points="70,300 800,292, 90,300"/>
			<polygon class="st8" points="20,300 30,292 40,300"/>
			<polygon  class="st8" points="30,319.227 40,327.284 50,319.227"/>
			<rect x="20" y="300" class="st8" width="1160" height="19.545"/>
			<text x="30" y="690" fill="#0057a5">1992-2002</text></g>
	</g>
	<g>
			<polygon class="st12" points="980,658.229 970,666.286 960,658.229" />
			<!--green-->
			<polygon class="st1" points="740,640.018 730,632.959 720,640.018"/>
			<!--blue-->
			<polygon class="st9" points="500,658.229 490,666.286 480,658.229" />
			<!--yellow-->
			<polygon class="st2" points="260,640.018 250,632.959 240,640.018" />
			<!--dark blue-->
			<polygon class="st8" points="30,658.227 40,666.284 50,658.227" />
			<polygon class="st8" points="20,640.018 30,632.959 40,640.018"/>
			<polygon class="st8" points="20,658.227 10,666.284 0,658.227" />
			
			<g>
			<rect x="960" y="640" class="st12" width="240" height="19.545"/>
			<text x="980" y="690" fill="#0057a5">2011-2015</text>
			</g>
			<g>
			<rect x="720" y="640" class="st1" width="240" height="19.545"/>
			<text x="740" y="690" fill="#0057a5">2011-2015</text>
			</g>
			<g><rect x="480" y="640" class="st9" width="240" height="19.545"/>
			<text x="500" y="690" fill="#0057a5">2008-2010</text></g>
			<g><rect x="240" y="640" class="st2" width="240" height="19.545"/>
			<text x="260" y="690" fill="#0057a5">2002-2007</text></g>
			<g><rect x="0" y="640" class="st8" width="240" height="19.545"/>
			<text x="30" y="690" fill="#0057a5">1992-2002</text></g>
		
	</g>
	
	<path class="st13" d="M825.695,737.636c0,6.68-8.153,12.093-18.211,12.093H601.096c-10.059,0-18.208-5.413-18.208-12.093V515.88
		c0-6.68,8.152-12.093,18.208-12.093h206.39c10.059,0,18.21,5.413,18.21,12.093V737.636L825.695,737.636z"/>
	<path class="st3" d="M205.323,443.127c0,6.68-8.153,12.096-18.208,12.096h-206.39c-10.059,0-18.21-5.417-18.21-12.096V221.374
		c0-6.68,8.152-12.096,18.21-12.096h206.389c10.058,0,18.208,5.415,18.208,12.096v221.753H205.323z"/>
	<path class="st0" d="M339.645,752.047c0,6.68-8.153,12.096-18.208,12.096H115.047c-10.059,0-18.21-5.416-18.21-12.096V530.292
		c0-6.683,8.153-12.094,18.21-12.094h206.389c10.059,0,18.208,5.411,18.208,12.094V752.047L339.645,752.047z"/>
	<path class="st4" d="M731.532,413.444c0,6.679-8.153,12.096-18.21,12.096H506.935c-10.06,0-18.21-5.417-18.21-12.096V191.69
		c0-6.68,8.153-12.096,18.21-12.096h206.389c10.058,0,18.209,5.415,18.209,12.096V413.444L731.532,413.444z"/>
	<path class="st7" d="M1144.173,436.767c0,6.68-8.152,12.096-18.21,12.096H919.575c-10.059,0-18.21-5.416-18.21-12.096V215.013
		c0-6.68,8.153-12.096,18.21-12.096h206.388c10.058,0,18.21,5.415,18.21,12.096V436.767L1144.173,436.767z"/>
</g>
<g id="MasterLayer_1" class="st11">
	<rect y="123.544" class="st6" width="169" height="201"/>
</g>
</svg>
